<?xml version="1.0" encoding="UTF-8"?>
<svg id="Camada_2" data-name="Camada 2" xmlns="http://www.w3.org/2000/svg" viewBox="0 0 1411.87 359.96">
  <g id="Camada_1-2" data-name="Camada 1">
    <g>
      <path d="M140.66,322.17v-102.14s-13.02-.88-13.02-.88l-89.04.11c-10.42.01-20.68,2.52-28.51,8.48-6.41,4.88-8.6,11.81-5.54,19.28,2.02,4.93,6.48,8.63,11.02,11.9,10.83,5.99,22.26,9.22,34.5,11.25l-27.19,19.55c-9.21-8.81-15.9-19.2-20.01-31.23-4.82-16.07-3.62-33.17,5.11-47.54,7.01-11.54,19.04-19.04,32.91-19.07l91.76-.17c6.72-.01,13.53-1.14,19.26-3.65l6.26-6.66.39,20.26h18.86c1.52,3.02-2.51,3.14-3.45,4.23-4.18,4.8-5.66,12.03-5.68,18.65l-.32,95.08c-.05,13.73-7.48,25.55-18.95,32.4-17.04,10.18-37.57,10.28-55.5,1.94-8.73-4.22-15.95-9.53-23.42-16.54l19.57-27.38c3.66,17.37,8.09,36.55,22.31,45.2,8.23,3.36,16.1,1.06,21.13-6.44,4.9-7.3,7.53-16.57,7.53-26.62Z"/>
      <path d="M337.2,70.22c7.33,7.25,12.57,14.58,16.79,23.26,8.32,17.91,8.19,38.51-1.88,55.45-7.16,12.06-19.24,19.07-33.46,19.09l-91.61.11c-8.93.01-21.46,2.2-22.73,9.16l-2.63.26.04-19.01-20.3-.33,6.68-6.38c2.07-5.01,3.59-11.25,3.61-17.22l.27-94.63c.08-27.61,30.03-43.78,57.76-39.24,15.48,2.73,29.03,10.73,40,22.08l-19.56,27.23c-2.1-12.55-5.27-23.37-10.83-33.93-3.23-4.64-6.85-8.87-11.46-11.48-7.88-3.05-14.96-1.45-20.11,5.4-5.67,7.53-8.41,17.51-8.43,27.62l-.18,84.92.74,18.03h102.75c9.27,0,18.39-2.51,25.61-7.12,7.83-5.01,10.5-13.06,6.97-21.52-8.58-14.29-27.86-18.68-45.14-22.26l27.09-19.5Z"/>
      <path d="M22.5,70.09l27.11,19.41c-16.93,4.08-38.23,9-44.82,22.9-3.6,7.59-.93,14.99,5.3,20.13,7.76,4.96,16.83,8.12,26.72,8.11l103.81-.05V35.76c0-8.5-2.94-16.3-6.44-23.32-3.31-4.83-7.4-8.46-12.71-9.12-19.19-2.37-27.78,25.96-31.85,46.43l-19.45-27.14C91.82.88,123.25-7.64,149.22,8.1c11.55,7,18.78,18.95,18.81,32.59l.19,94.32c.02,7.97,2.06,17.76,8.48,20.33.66.27.68,1.87.45,3.02l-18.58.17-.35,19.21c-2.71.19-2.87-2.67-4-3.69-4.81-4.34-12.46-5.76-19.35-5.77l-93.1-.22c-14.14-.03-26.29-6.78-33.68-18.92-15.58-25.59-7.53-56.61,14.41-79.05Z"/>
      <path d="M219.24,230.63l.09,91.16c.01,13.88,6.33,32.82,18.14,34.72,5.98.96,11.28-.8,15.41-4.77,4.46-4.28,8.51-9.69,10.21-15.73l7.28-25.82,19.43,26.97c-20.37,21.32-51.91,30.36-77.83,15.39-12.09-6.98-19.97-18.89-20.02-33.06l-.35-96.71c-.02-6.23-2.24-12.79-5.38-17.26l-3.09-.96c-.59-.18-.4-2.32-.1-2.9l18.57-.06.23-18.9c2.05-1.09,2.85,1.89,4,3.1,3.79,3.98,11.01,5.7,17,5.73l96.71.39c13.95.06,25.66,7.62,32.68,19.37,15.49,25.92,6.56,57.93-15.03,78.47l-26.92-19.43c19.63-4.06,48.21-11.6,46.41-32.04-1.11-12.59-20.9-19.02-35.64-19.03l-90.79-.04-10.46.42-.54,10.99Z"/>
      <path d="M805.97,267.97l-12.26-40.26c-3.81-12.52-18.08-12.73-31.01-11.52l.06,46.54c0,5.49,1.47,11.62,3.23,16.54l5.93,6.01-42.87-.03c1.94-2.77,3.15-3.4,5.35-5.09,2.65-5.9,3.62-12.68,3.62-19.58v-90.84c.01-6.64-.65-12.55-2.75-18.82-.63-1.89-3.77-3.53-6.19-6.43l68.26.54c11.57.09,22.57,5.07,31.44,11.36,7.94,5.63,12.09,14.07,12.42,23.07.34,9.37-4.18,17.76-11.83,24-9.31,7.61-20.59,10.02-33.25,12.31,13.25,4.32,22.94,13.33,27.36,26.23l8.9,25.99c1.75,5.12,4.91,10.73,9.23,13.52,1.91,1.23,2.59,1.23,3.4,3.86h-42.96s3.33-4.52,3.33-4.52c1.84-2.5,1.82-8.83.58-12.89ZM812.72,194.1c2.96-8.64,2.69-17.7.77-26.18-3.37-12.45-13.78-20.86-26.82-21.01l-23.94-.27v66.79s23.39-.32,23.39-.32c12.17-.16,22.44-6.84,26.6-19Z"/>
      <path d="M931.74,285.15l-61.33.37c.15-3.04,2.67-3.11,3.77-4.44,3.92-4.74,4.94-11.96,4.94-18.5v-95.92c0-6.44-.94-13.72-5-18.41-1.19-1.38-4.36-1.98-3.27-4.24l58.85.25c27.92.12,51.23,17.87,59.03,44.54,5.28,18.06,5.11,37.03-.97,54.86-8.25,24.17-31.27,41.34-56.02,41.49ZM965.03,196.44c-2.63-23.43-13.66-49.26-38.33-49.49l-22.99-.21v135.87s23.02-.18,23.02-.18c11.58-.09,21.44-6.6,27.57-16.25,12.05-18.95,13.26-47.13,10.72-69.75Z"/>
      <path d="M644.35,286.77c-22.14,1.43-41.62-7.29-54.36-24.42-19.43-26.1-19.4-69.2.01-95.35,12.74-17.17,32.34-25.73,53.82-24.46,22.71,1.34,42.16,14.34,51.99,35.31,10.68,22.77,10.81,50.1.32,73.02-9.52,20.81-28.67,34.41-51.78,35.91ZM677.85,267.26c15.78-27.86.8-72.98-18.24-98.28-7.27-9.65-16.53-17.11-27.99-19.93-10.8-2.66-20.9,1.29-27.74,9.98-5.79,7.36-8.59,16.89-8.74,26.95-.39,26.63,8.77,53.11,24.68,74.37,7.26,9.7,16.59,17.12,28.02,19.94,12.05,2.97,23.78-2.03,30.02-13.04Z"/>
      <path d="M1263.14,285.55l-32.43.02-67.81-129.49-.05,95.54c0,7.96,2.04,15.39,6.16,21.7,6.98,10.44,20.96,8.65,19.11,10.85l-1.24,1.47-35.7-.18c1.03-2.62,2.5-3.09,3.88-4.64,4.47-5.03,4.89-13.16,4.9-20.21l.05-91.87c0-6.55-1.01-13.15-3.37-18.73l-5.83-5.91,33.63-.11,67.36,128.67.26-93.91c.02-8.5-1.72-16.34-6.13-23.22-4.76-6.02-11.41-8.75-18.88-8.77l.1-2.23c.02-.36,1.25-.56,1.67-.56l34.78.12c.53,3.16-3.03,2.87-3.68,3.76-3.55,4.89-4.97,11.53-4.97,17.93l.03,98.72c0,15.2,8.2,19.9,8.23,18.28l-.06,2.77Z"/>
      <path d="M1337.29,151.7l-30.34,100.07c-1.67,5.52-1.95,11.14-1.97,16.62,1.14,8.99,7.27,14.91,17.21,14.15l.22,3.06-36.23-.08c-1.5-3.21,2.46-2.8,3.54-3.78,5.3-4.82,8.63-11.42,10.78-18.53l35.95-119.14,24.33-.1,36,119.44c1.93,6.4,5.38,12.01,9.03,17.09,2.4,1.42,4.12,1.97,6.06,4.95l-43.15.15c-.51-1.63,1.61-3.37,2.97-4.16,2.27-5.56.63-11.91-.66-18.15l-33.74-111.61Z"/>
      <path d="M1055.67,151.71l-30.4,100.31c-1.66,5.48-1.81,11.14-1.8,16.64,2.07,15.77,17.48,13.82,17.4,14.52l-.29,2.39-36.46-.12c1-2.7,2.07-2.46,3.85-3.88,4.9-3.9,8.58-10.65,10.59-17.3l36.29-120.24,24.28-.08,35.96,119.25c2.01,6.67,6.53,14.84,10.77,18.55.58.51,2.88.89,3.45,1.06s.28,1.88.07,2.77l-42.18-.15c-1.02-1.72,1.85-3.11,2.74-3.85,2.2-4.78,1.26-12.1-.47-17.82l-33.81-112.05Z"/>
      <path d="M452.64,266.5l17.47-24.31c3.28,14.22,7.39,33.19,19.73,40.1,7.11,3.98,15.07,1.5,19.49-5.18,4.53-6.84,6.89-15.31,6.89-23.95l.06-86.19c0-5.3-1-10.37-2.5-15.46-.76-2.58-3.52-3.96-6.59-6.85l42.42-.04c-7.77,5.84-8.61,15.45-8.61,25.07l-.04,79.93c-.01,24.99-23.54,39.41-49.35,36.9-14.87-1.44-27.63-8.93-38.95-20.04Z"/>
      <path d="M647.59,96.17c0,1.24-5.06-.12-4.66-1.56l-25.67-34.16-.07,35.56-3.45.56.03-41.89c1.37-.23,3.77.41,4.46,1.28l25.8,34.54.28-35.9,3.43.18-.15,41.38Z"/>
      <path d="M812.75,85.66l-23.39-.09-4.8,10.99-3.86-.02,17.84-41.11,2.66-1.06c.78-.31,2.09,1.4,2.5,2.33l17.19,39.01c-.24.38-2,1.36-2.54,1.07s-1.56-1.42-1.83-2.06l-3.77-9.06ZM811.15,82.21l-10.31-23.55-10.2,23.88,20.51-.33Z"/>
      <path d="M462.83,91.19c5.87,4.31,14.43,3.56,19.97-.34,1.16-.81,2.48-1.47,3.1-1.04,4.57,3.14-12.29,12.23-24.14,4.96-12.03-7.39-12.39-29.3-.89-38,8.27-4.77,18.18-4.35,25.89,2.14l-1.93,2.99c-6.04-5.31-14.59-6.52-21.24-2.38-9.31,5.79-9.2,25.45-.75,31.67Z"/>
      <path d="M726.92,88.94c5.59,7.94,18.26,5.38,23.43,1.01.64-.54,3.03.54,2.74,1.11-3.67,7.28-18.87,8.86-26.99,2.38-9.29-7.42-9.42-28.19-.09-35.52,11.45-8.99,30.2-1.85,25.6,4.02-6.93-5.76-18.34-7.37-24.49.15-5.78,7.07-5.58,19.2-.2,26.85Z"/>
      <polygon points="544.55 93.64 544.82 96.68 519.71 96.67 519.74 54.67 523.09 55.36 523.04 93.67 544.55 93.64"/>
      <rect x="575.72" y="54.19" width="3.43" height="42.49"/>
      <rect x="682.72" y="54.44" width="3.03" height="42.24"/>
      <path d="M581.08,47.92c-1.16,1.5-3.35,2.75-5.21,2.64l5.81-8.87c.67-1.02,3.82-1.4,5.03-1.05l-5.63,7.28Z"/>
    </g>
  </g>
</svg>